[Header]
FileType HTR
DataType HTRS
FileVersion 1
NumSegments 22
NumFrames 6
DataFrameRate 24
EulerRotationOrder ZYX
CalibrationUnits mm
RotationUnits Degrees
GlobalAxisofGravity Y
BoneLengthAxis Y
ScaleFactor 1.0
[SegmentNames&Hierarchy]
reference	GLOBAL
Hips	reference
Spine	Hips
Spine1	Spine
Neck	Spine1
Head	Neck
LeftShoulder	Spine1
LeftArm	LeftShoulder
LeftForeArm	LeftArm
LeftHand	LeftForeArm
RightShoulder	Spine1
RightArm	RightShoulder
RightForeArm	RightArm
RightHand	RightForeArm
LeftUpLeg	Hips
LeftLeg	LeftUpLeg
LeftFoot	LeftLeg
LeftToeBase	LeftFoot
RightUpLeg	Hips
RightLeg	RightUpLeg
RightFoot	RightLeg
RightToeBase	RightFoot
[BasePosition]
reference	0	0	0	0	0	0	1
Hips	0	0	0	0	0	0	1
Spine	0	0	0	-0	-90	0	1
Spine1	0	0	0	0	0	0	1
Neck	0	0	0	82.64767223	-82.64767223	-90	1
Head	0	0	0	-0	-90	0	1
LeftShoulder	0	0	0	0	0	0	1
LeftArm	0	0	0	0	0	0	1
LeftForeArm	0	0	0	0	0	0	1
LeftHand	0	0	0	0	0	0	1
RightShoulder	0	0	0	0	-0	180	1
RightArm	0	0	0	0	-0	180	1
RightForeArm	0	0	0	0	-0	180	1
RightHand	0	0	0	0	-0	180	1
LeftUpLeg	0	0	0	-0	90	0	1
LeftLeg	0	0	0	-0	90	0	1
LeftFoot	0	0	0	-23.42853957	23.42853957	-90	1
LeftToeBase	0	0	0	0	-0	-90	1
RightUpLeg	0	0	0	-0	90	0	1
RightLeg	0	0	0	-0	90	0	1
RightFoot	0	0	0	-23.42853957	23.42853957	-90	1
RightToeBase	0	0	0	0	-0	-90	1
[reference]
20	0	0	0	0	-0	0	1.0
21	0	0	0	0	-0	0	1.0
22	0	0	0	0	-0	0	1.0
23	0	0	0	0	-0	0	1.0
24	0	0	0	0	-0	0	1.0
25	0	0	0	0	-0	0	1.0
[Hips]
20	0.108005479	-0.7998496294	8.475209236	-3.670358181	2.640122652	-115.1539383	1.0
21	-0.1158099994	-0.7120600343	8.33825016	-4.124078751	4.261332989	-114.3131332	1.0
22	-0.4767840803	-0.6026485562	8.330626488	-5.544622421	6.383915901	-112.4223328	1.0
23	-0.5260481834	-0.5836547017	8.33447361	-4.702675819	5.934926987	-112.6678772	1.0
24	-0.5673643351	-0.5663006306	8.346745491	-3.734717846	5.814476013	-112.900589	1.0
25	-0.7923600078	-0.5154699683	8.407539368	-1.063997269	5.183231831	-109.2870255	1.0
[Spine]
20	0	0	0.7457100153	-26.84864426	85.6147995	-33.83670425	1.0
21	0	0	0.7457100153	-23.95115089	85.33662415	-30.9025898	1.0
22	0	0	0.7457100153	8.231945038	85.38789368	0.7164855003	1.0
23	0	0	0.7457100153	17.82250595	86.00859833	11.52978897	1.0
24	0	0	0.7457100153	28.88240433	86.42446899	23.81785965	1.0
25	0	0	0.7457100153	16.0002327	88.34822845	15.63221455	1.0
[Spine1]
20	0	0	2.140589952	6.84577322	1.189764023	-0.6545476913	1.0
21	0	0	2.140589952	10.85376835	1.112431407	-0.6129546165	1.0
22	0	0	2.140589952	12.43723297	-0.1557622701	0.09031017125	1.0
23	0	0	2.140589952	10.98147583	-0.3147559762	0.3014183939	1.0
24	0	0	2.140589952	9.805365562	-0.7148420811	0.4449662864	1.0
25	0	0	2.140589952	7.362559795	-0.755160749	0.09274040163	1.0
[Neck]
20	0	0	2.32246995	73.02529907	71.20830536	77.58669281	1.0
21	0	0	2.32246995	67.96343994	71.56012726	77.82624054	1.0
22	0	0	2.32246995	64.49542236	73.96237946	74.95475769	1.0
23	0	0	2.32246995	65.98220825	74.22555542	73.62191772	1.0
24	0	0	2.32246995	67.70533752	74.47496033	73.34568787	1.0
25	0	0	2.32246995	69.65452576	75.28594208	70.6050415	1.0
[Head]
20	0	-0.1818799973	1.409579992	-66.42588043	103.398407	-64.43663025	1.0
21	0	-0.1818799973	1.409579992	-69.17765045	102.6085587	-65.30402374	1.0
22	0	-0.1818799973	1.409579992	-63.70894241	100.1748657	-60.04747772	1.0
23	0	-0.1818799973	1.409579992	-65.37339783	99.59899902	-62.17045975	1.0
24	0	-0.1818799973	1.409579992	-67.80049896	99.09880829	-64.77727509	1.0
25	0	-0.1818799973	1.409579992	-73.28840637	97.71775055	-69.91895294	1.0
[LeftShoulder]
20	0.3668199778	0.02662999928	1.946700096	-13.70299244	-3.060036659	-12.04017067	1.0
21	0.3668199778	0.02662999928	1.946700096	-14.38843346	-2.303108215	-11.20233059	1.0
22	0.3668199778	0.02662999928	1.946700096	-15.91056347	-3.155488968	-11.34469795	1.0
23	0.3668199778	0.02662999928	1.946700096	-15.41808891	-3.197014809	-11.31450653	1.0
24	0.3668199778	0.02662999928	1.946700096	-15.18160343	-3.443730354	-11.16869354	1.0
25	0.3668199778	0.02662999928	1.946700096	-14.11363029	-4.158745289	-9.874646187	1.0
[LeftArm]
20	1.140689969	0	0	1.506101608	66.60667419	-50.55989456	1.0
21	1.140689969	0	0	-0.08731592447	71.70175171	-49.98353195	1.0
22	1.140689969	0	0	-2.804292679	73.81626892	-50.70338058	1.0
23	1.140689969	0	0	0.4231735468	72.45228577	-49.44882202	1.0
24	1.140689969	0	0	1.543869257	71.5038681	-48.33172226	1.0
25	1.140689969	0	0	-1.02498436	64.48197174	-46.36847687	1.0
[LeftForeArm]
20	2.749800205	0	0	-19.82435417	-8.685791016	-26.15095329	1.0
21	2.749800205	0	0	-20.24297142	-3.827885389	-18.66801453	1.0
22	2.749800205	0	0	-21.89718246	-6.509697914	-19.50449181	1.0
23	2.749800205	0	0	-22.17492485	-8.740447998	-21.1691246	1.0
24	2.749800205	0	0	-22.51996994	-10.93057823	-23.47392273	1.0
25	2.749800205	0	0	-16.68655205	-17.56712914	-37.59103012	1.0
[LeftHand]
20	2.295179844	0	0	-21.65696335	-1.700404167	-13.22746563	1.0
21	2.295179844	0	0	-20.73494339	-1.363863468	-11.54223251	1.0
22	2.295179844	0	0	-22.65158844	-4.022780418	-10.42267036	1.0
23	2.295179844	0	0	-23.42148209	-4.086601257	-10.72922707	1.0
24	2.295179844	0	0	-24.27098846	-4.828029156	-11.22323322	1.0
25	2.295179844	0	0	-22.25691605	-4.095467567	-12.56673336	1.0
[RightShoulder]
20	-0.3601199985	0.02662999928	1.946700096	-11.96195602	2.848891735	-162.2103577	1.0
21	-0.3601199985	0.02662999928	1.946700096	-12.40651417	3.727444172	-162.4509735	1.0
22	-0.3601199985	0.02662999928	1.946700096	-13.2000351	4.208816528	-166.5278473	1.0
23	-0.3601199985	0.02662999928	1.946700096	-12.74202824	3.801642418	-166.3803253	1.0
24	-0.3601199985	0.02662999928	1.946700096	-12.38442421	3.697205067	-166.2149353	1.0
25	-0.3601199985	0.02662999928	1.946700096	-12.12890625	4.140829563	-166.0856476	1.0
[RightArm]
20	-1.140689969	0	0	-186.1158447	-116.3993683	54.46552277	1.0
21	-1.140689969	0	0	-183.1470337	-110.4505081	48.88087463	1.0
22	-1.140689969	0	0	-185.8078003	-109.1520844	43.74145508	1.0
23	-1.140689969	0	0	-183.4322205	-110.7310638	43.26787949	1.0
24	-1.140689969	0	0	-181.2593384	-112.1312866	42.94314575	1.0
25	-1.140689969	0	0	-178.8706665	-117.4170837	41.42692566	1.0
[RightForeArm]
20	-2.749800205	0	0	0.1060172766	6.006333351	-156.1333771	1.0
21	-2.749800205	0	0	0.8050661087	2.075333357	-161.124176	1.0
22	-2.749800205	0	0	-1.332728148	4.518246174	-160.4983826	1.0
23	-2.749800205	0	0	-1.638089895	6.170773983	-159.265564	1.0
24	-2.749800205	0	0	-1.616269469	8.160978317	-157.8136597	1.0
25	-2.749800205	0	0	-1.849984884	18.17292976	-149.2974701	1.0
[RightHand]
20	-2.295179844	0	0	-0.2470769733	6.210418224	-163.0673523	1.0
21	-2.295179844	0	0	1.177602053	5.005187988	-163.6853333	1.0
22	-2.295179844	0	0	-1.386186123	5.370597839	-164.6294098	1.0
23	-2.295179844	0	0	-1.976383686	5.766825676	-164.4468384	1.0
24	-2.295179844	0	0	-2.304414272	6.08297205	-163.7824249	1.0
25	-2.295179844	0	0	-5.706411362	8.414087296	-164.1565552	1.0
[LeftUpLeg]
20	0.9094099998	0	0	68.98976898	-108.8106461	-81.75898743	1.0
21	0.9094099998	0	0	73.26586151	-120.1971512	-86.19272614	1.0
22	0.9094099998	0	0	67.14724731	-111.2015533	-78.48974609	1.0
23	0.9094099998	0	0	66.39237213	-108.8660736	-77.96528625	1.0
24	0.9094099998	0	0	67.92640686	-109.6184616	-79.56874084	1.0
25	0.9094099998	0	0	73.37093353	-108.4827042	-81.90322113	1.0
[LeftLeg]
20	0	0	-4.498080254	67.23387146	-78.43047333	-46.60463715	1.0
21	0	0	-4.498080254	88.75195313	-67.95129395	-64.37654114	1.0
22	0	0	-4.498080254	84.16403198	-74.07615662	-55.87552643	1.0
23	0	0	-4.498080254	80.1414032	-74.54679871	-52.24520874	1.0
24	0	0	-4.498080254	78.03027344	-76.04181671	-51.37424088	1.0
25	0	0	-4.498080254	63.82927704	-79.80891418	-45.95027924	1.0
[LeftFoot]
20	0	0	-3.729400158	-38.21544647	-18.15407181	96.92630005	1.0
21	0	0	-3.729400158	-47.82254028	-20.96997833	98.61595154	1.0
22	0	0	-3.729400158	-54.5333252	-18.71023369	106.2969971	1.0
23	0	0	-3.729400158	-54.95825195	-17.06837273	108.3301086	1.0
24	0	0	-3.729400158	-55.10565948	-17.79694176	107.799202	1.0
25	0	0	-3.729400158	-52.73442459	-21.18722725	103.8827057	1.0
[LeftToeBase]
20	0	-1.364109993	-0.5911099911	-1.999999995e-006	0	-1.999999995e-006	1.0
21	0	-1.364109993	-0.5911099911	-1.999999995e-006	0	-1.999999995e-006	1.0
22	0	-1.364109993	-0.5911099911	-1.999999995e-006	0	-1.999999995e-006	1.0
23	0	-1.364109993	-0.5911099911	-1.999999995e-006	0	-1.999999995e-006	1.0
24	0	-1.364109993	-0.5911099911	-1.999999995e-006	0	-1.999999995e-006	1.0
25	0	-1.364109993	-0.5911099911	-1.999999995e-006	0	-1.999999995e-006	1.0
[RightUpLeg]
20	-0.9094099998	0	0	-63.14046097	-117.979248	-23.13306618	1.0
21	-0.9094099998	0	0	-68.68451691	-120.6752014	-35.60209656	1.0
22	-0.9094099998	0	0	-71.84945679	-122.8134155	-35.88878632	1.0
23	-0.9094099998	0	0	-67.82239532	-121.4503784	-35.25078583	1.0
24	-0.9094099998	0	0	-63.87770081	-120.1586914	-34.6169014	1.0
25	-0.9094099998	0	0	-60.30754089	-113.8903732	-11.98162842	1.0
[RightLeg]
20	0	0	-4.498080254	-122.6349716	-120.7486877	232.1911621	1.0
21	0	0	-4.498080254	-132.3400879	-109.8107071	248.6571198	1.0
22	0	0	-4.498080254	-128.3368225	-106.6105576	251.1728058	1.0
23	0	0	-4.498080254	-124.8828125	-106.9194107	248.5367584	1.0
24	0	0	-4.498080254	-121.7619171	-107.791481	245.7306213	1.0
25	0	0	-4.498080254	-120.7310028	-114.8884506	230.9760132	1.0
[RightFoot]
20	0	0	-3.729400158	-62.43384171	-37.11290359	104.7966461	1.0
21	0	0	-3.729400158	-57.74317551	-37.44462967	96.37268829	1.0
22	0	0	-3.729400158	-49.97462082	-34.64393997	87.90641785	1.0
23	0	0	-3.729400158	-46.54502487	-33.27112579	86.93136597	1.0
24	0	0	-3.729400158	-43.18058395	-31.67731667	87.6545105	1.0
25	0	0	-3.729400158	-32.01496506	-21.90683556	87.25160217	1.0
[RightToeBase]
20	0	-1.364109993	-0.5911099911	1.999999995e-006	9.999999975e-007	1.999999995e-006	1.0
21	0	-1.364109993	-0.5911099911	1.999999995e-006	9.999999975e-007	1.999999995e-006	1.0
22	0	-1.364109993	-0.5911099911	1.999999995e-006	9.999999975e-007	1.999999995e-006	1.0
23	0	-1.364109993	-0.5911099911	1.999999995e-006	9.999999975e-007	1.999999995e-006	1.0
24	0	-1.364109993	-0.5911099911	1.999999995e-006	9.999999975e-007	1.999999995e-006	1.0
25	0	-1.364109993	-0.5911099911	1.999999995e-006	9.999999975e-007	1.999999995e-006	1.0
[EndOfFile]
